<svg xmlns="http://www.w3.org/2000/svg" viewBox="0 0 320 240"><rect width="320" height="240" style="fill:#004f37"/><path d="M311,9V231H9V9H311m3-3H6V234H314V6Z" style="fill:#fff"/><line x1="6" y1="41.75" x2="314" y2="41.75" style="fill:none;stroke:#fff;stroke-miterlimit:10;stroke-width:2px"/><line x1="6" y1="77.75" x2="314" y2="77.75" style="fill:none;stroke:#fff;stroke-miterlimit:10;stroke-width:2px"/><line x1="6" y1="113.75" x2="314" y2="113.75" style="fill:none;stroke:#fff;stroke-miterlimit:10;stroke-width:2px"/><line x1="126" y1="113.5" x2="126" y2="6" style="fill:none;stroke:#fff;stroke-miterlimit:10;stroke-width:2px"/><path d="M50.41,34.18V36.4H23.65V34.18H35.71V17H25.21V14.69h23.7V17H38.14V34.18Z" style="fill:#fff"/><path d="M80.53,30.19H77.44V35.5H75.22V34.15H68v2.07c0,1.38-.42,1.89-1.32,2.22a17.91,17.91,0,0,1-5,.36,7.4,7.4,0,0,0-.78-1.89c1.8.06,3.6,0,4.11,0s.75-.21.75-.72V34.15H56.11V32.44H65.8V30.19H53.53V28.42H65.8v-2.1H56.38V24.67H65.8v-2.1H57.22V17.29H65.8V15.56H54.1V13.73H65.8v-2.4H68v2.4H80v1.83H68v1.73H77v5.28H68v2.1h9.42v3.75h3.09ZM65.8,21V18.85H59.35V21ZM68,18.85V21h6.72V18.85Zm0,9.57h7.2v-2.1H68Zm7.2,1.77H68v2.25h7.2Z" style="fill:#fff"/><path d="M108.52,38.74h-2.25V37.48H94v1.2H91.78V29.2a37.67,37.67,0,0,1-7.38,3.36,6.78,6.78,0,0,0-1.32-2,33.45,33.45,0,0,0,11.13-5.76,36.76,36.76,0,0,0-5.49-4.91,33.61,33.61,0,0,1-3.93,2.73A7.2,7.2,0,0,0,83.23,21a25.26,25.26,0,0,0,10.08-9.75l2.49.51c-.51.84-1.08,1.71-1.71,2.58h8.46l.42-.12,1.47.78A28.27,28.27,0,0,1,96.25,26h12.27Zm-16-22.43a24.35,24.35,0,0,1-2.13,2.19A38.15,38.15,0,0,1,96,23.32a24.13,24.13,0,0,0,5.4-7Zm13.8,19.13V28.06H94v7.38Z" style="fill:#fff"/><path d="M50.41,70.18V72.4H23.65V70.18H35.71V53H25.21V50.69h23.7V53H38.14V70.18Z" style="fill:#fff"/><path d="M93.34,65.5a34.36,34.36,0,0,0-2.73-3.72V74.62H88.45V61.36a31.87,31.87,0,0,1-4.35,7.86,10.32,10.32,0,0,0-1.11-2,31,31,0,0,0,5.16-9.39H83.56v-2.1h4.89V51.14c-1.47.3-3,.54-4.38.75a8.4,8.4,0,0,0-.69-1.74,44.71,44.71,0,0,0,9.51-2.4l1.53,1.68a24.87,24.87,0,0,1-3.81,1.2v5.06h3.75v2.1H90.61v1.84c.93.77,3.48,3.41,4.08,4.1Zm17.49,6.72v1.86H93V72.22h8.22V69.88H94.69v-1.8h6.51V66H95V56.38h6.18v-2H93.76V52.54h7.44v-2c-2.16.15-4.38.24-6.39.29a5.39,5.39,0,0,0-.51-1.67,101.31,101.31,0,0,0,14.55-1.47l1.35,1.68a56,56,0,0,1-6.87,1v2.19h6.93v1.84h-6.93v2h6.33V66h-6.33v2.13h6.48v1.8h-6.48v2.34ZM97,60.4h4.2V58.06H97Zm4.2,3.87v-2.4H97v2.4Zm2.13-6.21V60.4h4.32V58.06Zm4.32,3.81h-4.32v2.4h4.32Z" style="fill:#fff"/><path d="M24.49,91.6a19.73,19.73,0,0,1,4.92,2.76l-1.26,1.83a21,21,0,0,0-4.92-3Zm3.51,8,1.77,1.17c-1.11,3.12-2.61,6.78-3.9,9.54l-2-1.2A91.19,91.19,0,0,0,28,99.61Zm-2.19-16a19.85,19.85,0,0,1,4.74,3l-1.32,1.77a20.46,20.46,0,0,0-4.71-3.21Zm8.91,20.93a20.65,20.65,0,0,1-4.32,6.21,16.15,16.15,0,0,0-1.74-1.23,16.12,16.12,0,0,0,4-5.52Zm5.37-19.91v18.74H31.42V84.65Zm-6.75,5.64h4.74V86.63H33.34Zm0,5.54h4.74V92.15H33.34Zm0,5.61h4.74V97.69H33.34Zm5,2.49a35.42,35.42,0,0,1,3.42,4.59L40,109.63a34.9,34.9,0,0,0-3.33-4.77Zm5.94-17.54v17h-2v-17Zm5.25-3.06v24.56c0,1.38-.33,2-1.17,2.37s-2.25.42-4.71.42a8.1,8.1,0,0,0-.66-2.1c1.77.06,3.36,0,3.81,0s.72-.15.72-.66V83.33Z" style="fill:#fff"/><path d="M83.35,109.69a17.4,17.4,0,0,0,4.08-6l2.1.54a20.59,20.59,0,0,1-4.14,6.42ZM107,101.92H87V92.38h8.61V83.3h2.22v3.21h11.34V88.6H97.87v3.78H107Zm-2.25-7.44H89.17v5.34h15.57Zm-10.38,9.87a37.88,37.88,0,0,1,.75,5.79l-2.22.3a34.52,34.52,0,0,0-.66-5.91Zm6-.24a30,30,0,0,1,2.25,5.73l-2.16.51a28.61,28.61,0,0,0-2.1-5.79Zm6-.57a32.71,32.71,0,0,1,4,6.06l-2.1.84a32.16,32.16,0,0,0-3.84-6.15Z" style="fill:#fff"/></svg>