<svg xmlns="http://www.w3.org/2000/svg" viewBox="0 0 320 240"><rect width="320" height="240" style="fill:#fff"/><path d="M311,9V231H9V9H311m3-3H6V234H314V6Z"/><line x1="6" y1="41.75" x2="314" y2="41.75" style="fill:none;stroke:#000;stroke-miterlimit:10;stroke-width:2px"/><line x1="6" y1="77.75" x2="314" y2="77.75" style="fill:none;stroke:#000;stroke-miterlimit:10;stroke-width:2px"/><line x1="6" y1="113.75" x2="314" y2="113.75" style="fill:none;stroke:#000;stroke-miterlimit:10;stroke-width:2px"/><line x1="126" y1="113.5" x2="126" y2="6" style="fill:none;stroke:#000;stroke-miterlimit:10;stroke-width:2px"/><path d="M49.41,34.18V36.4H22.65V34.18H34.71V17H24.21V14.68h23.7V17H37.14V34.18Z"/><path d="M79.53,30.19H76.44V35.5H74.22V34.15H67v2.07c0,1.38-.42,1.89-1.32,2.22a17.91,17.91,0,0,1-5,.36,7.4,7.4,0,0,0-.78-1.89c1.8.06,3.6,0,4.11,0s.75-.21.75-.72V34.15H55.11V32.44H64.8V30.19H52.53V28.42H64.8v-2.1H55.38V24.67H64.8v-2.1H56.22V17.29H64.8V15.55H53.1V13.72H64.8v-2.4H67v2.4H79v1.83H67v1.74H76v5.28H67v2.1h9.42v3.75h3.09ZM64.8,21V18.85H58.35V21ZM67,18.85V21h6.72V18.85Zm0,9.57h7.2v-2.1H67Zm7.2,1.77H67v2.25h7.2Z"/><path d="M107.52,38.74h-2.25V37.48H93v1.2H90.78V29.2a37.67,37.67,0,0,1-7.38,3.36,6.78,6.78,0,0,0-1.32-2,33.45,33.45,0,0,0,11.13-5.76,37.35,37.35,0,0,0-5.49-4.92,32.44,32.44,0,0,1-3.93,2.73A7.61,7.61,0,0,0,82.23,21,25.26,25.26,0,0,0,92.31,11.2l2.49.51c-.51.84-1.08,1.71-1.71,2.58h8.46l.42-.12,1.47.78A28.31,28.31,0,0,1,95.25,26h12.27Zm-16-22.44a24.35,24.35,0,0,1-2.13,2.19A38.78,38.78,0,0,1,95,23.32a24.31,24.31,0,0,0,5.4-7Zm13.8,19.14V28.06H93v7.38Z"/><path d="M49.41,70.18V72.4H22.65V70.18H34.71V53H24.21V50.68h23.7V53H37.14V70.18Z"/><path d="M92.34,65.5a34.36,34.36,0,0,0-2.73-3.72V74.62H87.45V61.36a31.87,31.87,0,0,1-4.35,7.86,10.32,10.32,0,0,0-1.11-2,31,31,0,0,0,5.16-9.39H82.56v-2.1h4.89V51.13c-1.47.3-3,.54-4.38.75a8.4,8.4,0,0,0-.69-1.74,44.71,44.71,0,0,0,9.51-2.4l1.53,1.68a24.87,24.87,0,0,1-3.81,1.2v5.07h3.75v2.1H89.61v1.83c.93.78,3.48,3.42,4.08,4.11Zm17.49,6.72v1.86H92V72.22h8.22V69.88H93.69v-1.8h6.51V66H94V56.38h6.18v-2H92.76V52.54h7.44v-2c-2.16.15-4.38.24-6.39.3a5.45,5.45,0,0,0-.51-1.68,101.31,101.31,0,0,0,14.55-1.47l1.35,1.68a57.82,57.82,0,0,1-6.87,1v2.19h6.93v1.83h-6.93v2h6.33V66h-6.33v2.13h6.48v1.8h-6.48v2.34ZM96,60.4h4.2V58.06H96Zm4.2,3.87v-2.4H96v2.4Zm2.13-6.21V60.4h4.32V58.06Zm4.32,3.81h-4.32v2.4h4.32Z"/><path d="M39.87,96.58v14.16H38v-3c-2.64.48-5.28,1-7.41,1.32L30,107.2c.72-.09,1.56-.21,2.49-.36V96.58H30.9L31.08,98,28,99v9.12c0,1.17-.24,1.77-1,2.16a9.91,9.91,0,0,1-3.69.36,8.27,8.27,0,0,0-.66-2c1.29,0,2.46,0,2.82,0s.51-.12.51-.54V99.7c-1.26.42-2.43.81-3.51,1.14l-.57-2.16c1.14-.3,2.55-.72,4.08-1.2V91.36H22.35v-2H26v-6h2v6h2.76v2H28v5.49L30.6,96V94.75H49.83v1.83Zm7.8-3.45H33.36V84.22H47.67ZM38,96.58H34.35v2.16H38Zm-3.66,5.88H38v-2.13H34.35ZM38,106v-2H34.35v2.52Zm7.53-20.22H35.4v2.1H45.54Zm0,3.6H35.4v2.13H45.54ZM49,98.65a19.47,19.47,0,0,1-2.85,7.68,11.83,11.83,0,0,0,4,2.82,7.48,7.48,0,0,0-1.29,1.59A13.26,13.26,0,0,1,45,107.8a12.89,12.89,0,0,1-3.84,2.91A5.76,5.76,0,0,0,40,109.12a10.76,10.76,0,0,0,3.75-2.88,20,20,0,0,1-2.58-5.34l1.62-.42a16.49,16.49,0,0,0,2.07,4.26,15.63,15.63,0,0,0,1.86-4.56H40.53V98.44H47.4l.36-.06Z"/><path d="M57.6,104.89a18.15,18.15,0,0,1-3.6,5,13.35,13.35,0,0,0-1.65-1.14,12.85,12.85,0,0,0,3.33-4.29ZM69.45,96h-17V94.21H60V92.35H54.51V84.43H67.74v7.92H62v1.86h7.44ZM62,103.66v4.92c0,1-.21,1.5-1,1.77a10,10,0,0,1-3.54.33,7.51,7.51,0,0,0-.84-1.8c1.35.06,2.49.06,2.85,0s.45-.06.45-.36v-4.89H54.78V97.72H67.5v5.94Zm-5.52-16h9.15V85.84H56.49Zm0,3.24h9.15V89.05H56.49Zm.21,11.13h8.73V99.28H56.7ZM80,101.29a24.57,24.57,0,0,1-10.53,9.36A9.23,9.23,0,0,0,68,108.91l-1,.51a23,23,0,0,0-3.12-4.14l1.68-.84a25.5,25.5,0,0,1,3.21,4l-.12.06a21.72,21.72,0,0,0,9.24-8.07ZM78.45,84.67a28.8,28.8,0,0,1-7.86,6.81A10.09,10.09,0,0,0,69,89.92a24,24,0,0,0,7.38-6.09Zm.75,8.25a31.11,31.11,0,0,1-8.46,7.17,10,10,0,0,0-1.62-1.56,26.1,26.1,0,0,0,8-6.48Z"/><path d="M105.87,85.36v24.87h-2.34V108.4H88.65v1.95H86.4v-25ZM88.65,87.55v8.1h14.88v-8.1Zm14.88,18.66V97.84H88.65v8.37Z"/></svg>